<svg xmlns="http://www.w3.org/2000/svg" viewBox="0 0 50 39.25"><defs><style>.cls-1{fill:#fff;}</style></defs><g id="レイヤー_2" data-name="レイヤー 2"><g id="_2" data-name="2"><path class="cls-1" d="M49.87,5.59a6.9,6.9,0,0,0-1.43-3c-.15-.18-.3-.35-.47-.52a7,7,0,0,0-4.91-2H6.94A7,7,0,0,0,2,2c-.17.17-.32.34-.47.52a6.78,6.78,0,0,0-1.42,3A6.72,6.72,0,0,0,0,6.94V32.31a7,7,0,0,0,.57,2.75A6.94,6.94,0,0,0,2,37.21c.16.16.31.3.48.44a6.91,6.91,0,0,0,4.43,1.6H43.06a6.89,6.89,0,0,0,4.43-1.6c.17-.14.32-.28.48-.44a6.94,6.94,0,0,0,1.46-2.15h0A6.87,6.87,0,0,0,50,32.31V6.94A6.72,6.72,0,0,0,49.87,5.59Zm-45.33-1a3.34,3.34,0,0,1,2.4-1H43.06a3.33,3.33,0,0,1,2.4,1,3.37,3.37,0,0,1,.3.36L26.83,21.4a2.8,2.8,0,0,1-3.66,0L4.25,4.89A2.34,2.34,0,0,1,4.54,4.54Zm-1,27.77V8.56l13.7,12L3.56,32.46A.76.76,0,0,1,3.55,32.31ZM43.06,35.7H6.94a3.27,3.27,0,0,1-1.68-.45L19.71,22.66l1.35,1.17a6,6,0,0,0,7.89,0l1.35-1.17L44.74,35.25A3.27,3.27,0,0,1,43.06,35.7Zm3.39-3.39v.15L32.75,20.52,46.45,8.57Z"/></g></g></svg>